<svg width="214" height="192" viewBox="0 0 214 192" fill="none" xmlns="http://www.w3.org/2000/svg">
<g filter="url(#filter0_dn_194_154)">
<rect x="6" y="5" width="180" height="158" fill="white"/>
<rect x="6.5" y="5.5" width="179" height="157" stroke="black"/>
<path d="M25.48 25.296C26.3333 25.3707 27.0747 25.5947 27.704 25.968C28.344 26.3413 28.84 26.8427 29.192 27.472C29.544 28.1013 29.72 28.848 29.72 29.712C29.72 30.576 29.5493 31.328 29.208 31.968C28.8667 32.5973 28.3813 33.0987 27.752 33.472C27.1227 33.8347 26.3653 34.0533 25.48 34.128V37.84H24.104V34.128C23.2613 34.0533 22.52 33.8347 21.88 33.472C21.24 33.0987 20.744 32.5973 20.392 31.968C20.04 31.328 19.864 30.576 19.864 29.712C19.864 28.8373 20.0347 28.0853 20.376 27.456C20.7173 26.816 21.208 26.3147 21.848 25.952C22.488 25.5787 23.256 25.36 24.152 25.296V21.84H25.48V25.296ZM24.152 26.464C23.5013 26.528 22.968 26.6933 22.552 26.96C22.136 27.2267 21.8267 27.5893 21.624 28.048C21.432 28.5067 21.336 29.0613 21.336 29.712C21.336 30.352 21.432 30.9067 21.624 31.376C21.8267 31.8347 22.136 32.2027 22.552 32.48C22.968 32.7467 23.5013 32.912 24.152 32.976V26.464ZM25.48 32.976C26.12 32.9013 26.6427 32.7307 27.048 32.464C27.464 32.1973 27.768 31.8347 27.96 31.376C28.1627 30.9067 28.264 30.352 28.264 29.712C28.264 29.072 28.1627 28.5227 27.96 28.064C27.7573 27.6053 27.448 27.2427 27.032 26.976C26.6267 26.7093 26.1093 26.544 25.48 26.48V32.976ZM37.0738 25.296C37.9271 25.3707 38.6684 25.5947 39.2978 25.968C39.9378 26.3413 40.4338 26.8427 40.7858 27.472C41.1378 28.1013 41.3138 28.848 41.3138 29.712C41.3138 30.576 41.1431 31.328 40.8018 31.968C40.4604 32.5973 39.9751 33.0987 39.3458 33.472C38.7164 33.8347 37.9591 34.0533 37.0738 34.128V37.84H35.6978V34.128C34.8551 34.0533 34.1138 33.8347 33.4738 33.472C32.8338 33.0987 32.3378 32.5973 31.9858 31.968C31.6338 31.328 31.4578 30.576 31.4578 29.712C31.4578 28.8373 31.6284 28.0853 31.9698 27.456C32.3111 26.816 32.8018 26.3147 33.4418 25.952C34.0818 25.5787 34.8498 25.36 35.7458 25.296V21.84H37.0738V25.296ZM35.7458 26.464C35.0951 26.528 34.5618 26.6933 34.1458 26.96C33.7298 27.2267 33.4204 27.5893 33.2178 28.048C33.0258 28.5067 32.9298 29.0613 32.9298 29.712C32.9298 30.352 33.0258 30.9067 33.2178 31.376C33.4204 31.8347 33.7298 32.2027 34.1458 32.48C34.5618 32.7467 35.0951 32.912 35.7458 32.976V26.464ZM37.0738 32.976C37.7138 32.9013 38.2364 32.7307 38.6418 32.464C39.0578 32.1973 39.3618 31.8347 39.5538 31.376C39.7564 30.9067 39.8578 30.352 39.8578 29.712C39.8578 29.072 39.7564 28.5227 39.5538 28.064C39.3511 27.6053 39.0418 27.2427 38.6258 26.976C38.2204 26.7093 37.7031 26.544 37.0738 26.48V32.976ZM48.6675 25.296C49.5208 25.3707 50.2622 25.5947 50.8915 25.968C51.5315 26.3413 52.0275 26.8427 52.3795 27.472C52.7315 28.1013 52.9075 28.848 52.9075 29.712C52.9075 30.576 52.7368 31.328 52.3955 31.968C52.0542 32.5973 51.5688 33.0987 50.9395 33.472C50.3102 33.8347 49.5528 34.0533 48.6675 34.128V37.84H47.2915V34.128C46.4488 34.0533 45.7075 33.8347 45.0675 33.472C44.4275 33.0987 43.9315 32.5973 43.5795 31.968C43.2275 31.328 43.0515 30.576 43.0515 29.712C43.0515 28.8373 43.2222 28.0853 43.5635 27.456C43.9048 26.816 44.3955 26.3147 45.0355 25.952C45.6755 25.5787 46.4435 25.36 47.3395 25.296V21.84H48.6675V25.296ZM47.3395 26.464C46.6888 26.528 46.1555 26.6933 45.7395 26.96C45.3235 27.2267 45.0142 27.5893 44.8115 28.048C44.6195 28.5067 44.5235 29.0613 44.5235 29.712C44.5235 30.352 44.6195 30.9067 44.8115 31.376C45.0142 31.8347 45.3235 32.2027 45.7395 32.48C46.1555 32.7467 46.6888 32.912 47.3395 32.976V26.464ZM48.6675 32.976C49.3075 32.9013 49.8302 32.7307 50.2355 32.464C50.6515 32.1973 50.9555 31.8347 51.1475 31.376C51.3502 30.9067 51.4515 30.352 51.4515 29.712C51.4515 29.072 51.3502 28.5227 51.1475 28.064C50.9448 27.6053 50.6355 27.2427 50.2195 26.976C49.8142 26.7093 49.2968 26.544 48.6675 26.48V32.976ZM60.2613 25.296C61.1146 25.3707 61.8559 25.5947 62.4853 25.968C63.1253 26.3413 63.6213 26.8427 63.9733 27.472C64.3253 28.1013 64.5013 28.848 64.5013 29.712C64.5013 30.576 64.3306 31.328 63.9893 31.968C63.6479 32.5973 63.1626 33.0987 62.5333 33.472C61.9039 33.8347 61.1466 34.0533 60.2613 34.128V37.84H58.8853V34.128C58.0426 34.0533 57.3013 33.8347 56.6613 33.472C56.0213 33.0987 55.5253 32.5973 55.1733 31.968C54.8213 31.328 54.6453 30.576 54.6453 29.712C54.6453 28.8373 54.8159 28.0853 55.1573 27.456C55.4986 26.816 55.9893 26.3147 56.6293 25.952C57.2693 25.5787 58.0373 25.36 58.9333 25.296V21.84H60.2613V25.296ZM58.9333 26.464C58.2826 26.528 57.7493 26.6933 57.3333 26.96C56.9173 27.2267 56.6079 27.5893 56.4053 28.048C56.2133 28.5067 56.1173 29.0613 56.1173 29.712C56.1173 30.352 56.2133 30.9067 56.4053 31.376C56.6079 31.8347 56.9173 32.2027 57.3333 32.48C57.7493 32.7467 58.2826 32.912 58.9333 32.976V26.464ZM60.2613 32.976C60.9013 32.9013 61.4239 32.7307 61.8293 32.464C62.2453 32.1973 62.5493 31.8347 62.7413 31.376C62.9439 30.9067 63.0453 30.352 63.0453 29.712C63.0453 29.072 62.9439 28.5227 62.7413 28.064C62.5386 27.6053 62.2293 27.2427 61.8133 26.976C61.4079 26.7093 60.8906 26.544 60.2613 26.48V32.976ZM71.855 25.296C72.7083 25.3707 73.4497 25.5947 74.079 25.968C74.719 26.3413 75.215 26.8427 75.567 27.472C75.919 28.1013 76.095 28.848 76.095 29.712C76.095 30.576 75.9243 31.328 75.583 31.968C75.2417 32.5973 74.7563 33.0987 74.127 33.472C73.4977 33.8347 72.7403 34.0533 71.855 34.128V37.84H70.479V34.128C69.6363 34.0533 68.895 33.8347 68.255 33.472C67.615 33.0987 67.119 32.5973 66.767 31.968C66.415 31.328 66.239 30.576 66.239 29.712C66.239 28.8373 66.4097 28.0853 66.751 27.456C67.0923 26.816 67.583 26.3147 68.223 25.952C68.863 25.5787 69.631 25.36 70.527 25.296V21.84H71.855V25.296ZM70.527 26.464C69.8763 26.528 69.343 26.6933 68.927 26.96C68.511 27.2267 68.2017 27.5893 67.999 28.048C67.807 28.5067 67.711 29.0613 67.711 29.712C67.711 30.352 67.807 30.9067 67.999 31.376C68.2017 31.8347 68.511 32.2027 68.927 32.48C69.343 32.7467 69.8763 32.912 70.527 32.976V26.464ZM71.855 32.976C72.495 32.9013 73.0177 32.7307 73.423 32.464C73.839 32.1973 74.143 31.8347 74.335 31.376C74.5377 30.9067 74.639 30.352 74.639 29.712C74.639 29.072 74.5377 28.5227 74.335 28.064C74.1323 27.6053 73.823 27.2427 73.407 26.976C73.0017 26.7093 72.4843 26.544 71.855 26.48V32.976ZM83.4488 25.296C84.3021 25.3707 85.0434 25.5947 85.6728 25.968C86.3128 26.3413 86.8088 26.8427 87.1608 27.472C87.5128 28.1013 87.6888 28.848 87.6888 29.712C87.6888 30.576 87.5181 31.328 87.1768 31.968C86.8354 32.5973 86.3501 33.0987 85.7208 33.472C85.0914 33.8347 84.3341 34.0533 83.4488 34.128V37.84H82.0728V34.128C81.2301 34.0533 80.4888 33.8347 79.8488 33.472C79.2088 33.0987 78.7128 32.5973 78.3608 31.968C78.0088 31.328 77.8328 30.576 77.8328 29.712C77.8328 28.8373 78.0034 28.0853 78.3448 27.456C78.6861 26.816 79.1768 26.3147 79.8168 25.952C80.4568 25.5787 81.2248 25.36 82.1208 25.296V21.84H83.4488V25.296ZM82.1208 26.464C81.4701 26.528 80.9368 26.6933 80.5208 26.96C80.1048 27.2267 79.7954 27.5893 79.5928 28.048C79.4008 28.5067 79.3048 29.0613 79.3048 29.712C79.3048 30.352 79.4008 30.9067 79.5928 31.376C79.7954 31.8347 80.1048 32.2027 80.5208 32.48C80.9368 32.7467 81.4701 32.912 82.1208 32.976V26.464ZM83.4488 32.976C84.0888 32.9013 84.6114 32.7307 85.0168 32.464C85.4328 32.1973 85.7368 31.8347 85.9288 31.376C86.1314 30.9067 86.2328 30.352 86.2328 29.712C86.2328 29.072 86.1314 28.5227 85.9288 28.064C85.7261 27.6053 85.4168 27.2427 85.0008 26.976C84.5954 26.7093 84.0781 26.544 83.4488 26.48V32.976ZM95.0425 25.296C95.8958 25.3707 96.6372 25.5947 97.2665 25.968C97.9065 26.3413 98.4025 26.8427 98.7545 27.472C99.1065 28.1013 99.2825 28.848 99.2825 29.712C99.2825 30.576 99.1118 31.328 98.7705 31.968C98.4292 32.5973 97.9438 33.0987 97.3145 33.472C96.6852 33.8347 95.9278 34.0533 95.0425 34.128V37.84H93.6665V34.128C92.8238 34.0533 92.0825 33.8347 91.4425 33.472C90.8025 33.0987 90.3065 32.5973 89.9545 31.968C89.6025 31.328 89.4265 30.576 89.4265 29.712C89.4265 28.8373 89.5972 28.0853 89.9385 27.456C90.2798 26.816 90.7705 26.3147 91.4105 25.952C92.0505 25.5787 92.8185 25.36 93.7145 25.296V21.84H95.0425V25.296ZM93.7145 26.464C93.0638 26.528 92.5305 26.6933 92.1145 26.96C91.6985 27.2267 91.3892 27.5893 91.1865 28.048C90.9945 28.5067 90.8985 29.0613 90.8985 29.712C90.8985 30.352 90.9945 30.9067 91.1865 31.376C91.3892 31.8347 91.6985 32.2027 92.1145 32.48C92.5305 32.7467 93.0638 32.912 93.7145 32.976V26.464ZM95.0425 32.976C95.6825 32.9013 96.2052 32.7307 96.6105 32.464C97.0265 32.1973 97.3305 31.8347 97.5225 31.376C97.7252 30.9067 97.8265 30.352 97.8265 29.712C97.8265 29.072 97.7252 28.5227 97.5225 28.064C97.3198 27.6053 97.0105 27.2427 96.5945 26.976C96.1892 26.7093 95.6718 26.544 95.0425 26.48V32.976ZM106.636 25.296C107.49 25.3707 108.231 25.5947 108.86 25.968C109.5 26.3413 109.996 26.8427 110.348 27.472C110.7 28.1013 110.876 28.848 110.876 29.712C110.876 30.576 110.706 31.328 110.364 31.968C110.023 32.5973 109.538 33.0987 108.908 33.472C108.279 33.8347 107.522 34.0533 106.636 34.128V37.84H105.26V34.128C104.418 34.0533 103.676 33.8347 103.036 33.472C102.396 33.0987 101.9 32.5973 101.548 31.968C101.196 31.328 101.02 30.576 101.02 29.712C101.02 28.8373 101.191 28.0853 101.532 27.456C101.874 26.816 102.364 26.3147 103.004 25.952C103.644 25.5787 104.412 25.36 105.308 25.296V21.84H106.636V25.296ZM105.308 26.464C104.658 26.528 104.124 26.6933 103.708 26.96C103.292 27.2267 102.983 27.5893 102.78 28.048C102.588 28.5067 102.492 29.0613 102.492 29.712C102.492 30.352 102.588 30.9067 102.78 31.376C102.983 31.8347 103.292 32.2027 103.708 32.48C104.124 32.7467 104.658 32.912 105.308 32.976V26.464ZM106.636 32.976C107.276 32.9013 107.799 32.7307 108.204 32.464C108.62 32.1973 108.924 31.8347 109.116 31.376C109.319 30.9067 109.42 30.352 109.42 29.712C109.42 29.072 109.319 28.5227 109.116 28.064C108.914 27.6053 108.604 27.2427 108.188 26.976C107.783 26.7093 107.266 26.544 106.636 26.48V32.976ZM118.23 25.296C119.083 25.3707 119.825 25.5947 120.454 25.968C121.094 26.3413 121.59 26.8427 121.942 27.472C122.294 28.1013 122.47 28.848 122.47 29.712C122.47 30.576 122.299 31.328 121.958 31.968C121.617 32.5973 121.131 33.0987 120.502 33.472C119.873 33.8347 119.115 34.0533 118.23 34.128V37.84H116.854V34.128C116.011 34.0533 115.27 33.8347 114.63 33.472C113.99 33.0987 113.494 32.5973 113.142 31.968C112.79 31.328 112.614 30.576 112.614 29.712C112.614 28.8373 112.785 28.0853 113.126 27.456C113.467 26.816 113.958 26.3147 114.598 25.952C115.238 25.5787 116.006 25.36 116.902 25.296V21.84H118.23V25.296ZM116.902 26.464C116.251 26.528 115.718 26.6933 115.302 26.96C114.886 27.2267 114.577 27.5893 114.374 28.048C114.182 28.5067 114.086 29.0613 114.086 29.712C114.086 30.352 114.182 30.9067 114.374 31.376C114.577 31.8347 114.886 32.2027 115.302 32.48C115.718 32.7467 116.251 32.912 116.902 32.976V26.464ZM118.23 32.976C118.87 32.9013 119.393 32.7307 119.798 32.464C120.214 32.1973 120.518 31.8347 120.71 31.376C120.913 30.9067 121.014 30.352 121.014 29.712C121.014 29.072 120.913 28.5227 120.71 28.064C120.507 27.6053 120.198 27.2427 119.782 26.976C119.377 26.7093 118.859 26.544 118.23 26.48V32.976Z" fill="black"/>
<path d="M25.37 54.532H22.92V61H21.702V54.532H19.28V53.496H25.37V54.532ZM29.6095 53.356C30.2535 53.356 30.8042 53.496 31.2615 53.776C31.7282 54.056 32.0828 54.4527 32.3255 54.966C32.5775 55.47 32.7035 56.0627 32.7035 56.744V57.486H27.5655C27.5842 58.3353 27.7988 58.984 28.2095 59.432C28.6295 59.8707 29.2128 60.09 29.9595 60.09C30.4355 60.09 30.8555 60.048 31.2195 59.964C31.5928 59.8707 31.9755 59.74 32.3675 59.572V60.65C31.9848 60.818 31.6068 60.9393 31.2335 61.014C30.8602 61.098 30.4168 61.14 29.9035 61.14C29.1942 61.14 28.5642 60.9953 28.0135 60.706C27.4722 60.4167 27.0475 59.9873 26.7395 59.418C26.4408 58.8393 26.2915 58.1347 26.2915 57.304C26.2915 56.4827 26.4268 55.778 26.6975 55.19C26.9775 54.602 27.3648 54.1493 27.8595 53.832C28.3635 53.5147 28.9468 53.356 29.6095 53.356ZM29.5955 54.364C29.0075 54.364 28.5408 54.5553 28.1955 54.938C27.8595 55.3113 27.6588 55.834 27.5935 56.506H31.4155C31.4155 56.0767 31.3502 55.7033 31.2195 55.386C31.0888 55.0687 30.8882 54.8213 30.6175 54.644C30.3562 54.4573 30.0155 54.364 29.5955 54.364ZM39.0518 53.496H40.3958L37.1898 57.108L40.6618 61H39.2338L35.8458 57.192V61H34.6138V53.496H35.8458V57.136L39.0518 53.496ZM44.7605 61.14C44.0979 61.14 43.5052 61.0047 42.9825 60.734C42.4692 60.4633 42.0632 60.0433 41.7645 59.474C41.4752 58.9047 41.3305 58.1767 41.3305 57.29C41.3305 56.366 41.4845 55.6147 41.7925 55.036C42.1005 54.4573 42.5159 54.0327 43.0385 53.762C43.5705 53.4913 44.1725 53.356 44.8445 53.356C45.2272 53.356 45.5959 53.398 45.9505 53.482C46.3052 53.5567 46.5945 53.65 46.8185 53.762L46.4405 54.784C46.2165 54.7 45.9552 54.6207 45.6565 54.546C45.3579 54.4713 45.0779 54.434 44.8165 54.434C44.3125 54.434 43.8972 54.5413 43.5705 54.756C43.2439 54.9707 43.0012 55.288 42.8425 55.708C42.6839 56.128 42.6045 56.6507 42.6045 57.276C42.6045 57.8733 42.6839 58.382 42.8425 58.802C43.0012 59.222 43.2392 59.5393 43.5565 59.754C43.8739 59.9687 44.2705 60.076 44.7465 60.076C45.1572 60.076 45.5165 60.034 45.8245 59.95C46.1419 59.866 46.4312 59.7633 46.6925 59.642V60.734C46.4405 60.8647 46.1605 60.9627 45.8525 61.028C45.5539 61.1027 45.1899 61.14 44.7605 61.14ZM53.6571 54.532H51.2071V61H49.9891V54.532H47.5671V53.496H53.6571V54.532Z" fill="black"/>
<rect x="19" y="123" width="92" height="29" rx="5" fill="#FFF42A"/>
<path d="M36.714 139.234C36.714 139.859 36.63 140.415 36.462 140.9C36.3033 141.376 36.07 141.782 35.762 142.118C35.4633 142.454 35.0947 142.711 34.656 142.888C34.2267 143.056 33.746 143.14 33.214 143.14C32.7193 143.14 32.262 143.056 31.842 142.888C31.422 142.711 31.058 142.454 30.75 142.118C30.442 141.782 30.1993 141.376 30.022 140.9C29.854 140.415 29.77 139.859 29.77 139.234C29.77 138.403 29.91 137.703 30.19 137.134C30.47 136.555 30.8713 136.117 31.394 135.818C31.9167 135.51 32.5373 135.356 33.256 135.356C33.9373 135.356 34.5347 135.51 35.048 135.818C35.5707 136.117 35.9767 136.555 36.266 137.134C36.5647 137.703 36.714 138.403 36.714 139.234ZM31.044 139.234C31.044 139.822 31.1187 140.335 31.268 140.774C31.4267 141.203 31.6693 141.535 31.996 141.768C32.3227 142.001 32.738 142.118 33.242 142.118C33.746 142.118 34.1613 142.001 34.488 141.768C34.8147 141.535 35.0527 141.203 35.202 140.774C35.3607 140.335 35.44 139.822 35.44 139.234C35.44 138.637 35.3607 138.128 35.202 137.708C35.0433 137.288 34.8007 136.966 34.474 136.742C34.1567 136.509 33.7413 136.392 33.228 136.392C32.4627 136.392 31.9073 136.644 31.562 137.148C31.2167 137.652 31.044 138.347 31.044 139.234ZM43.1466 135.384C43.8932 135.449 44.5419 135.645 45.0926 135.972C45.6526 136.299 46.0866 136.737 46.3946 137.288C46.7026 137.839 46.8566 138.492 46.8566 139.248C46.8566 140.004 46.7072 140.662 46.4086 141.222C46.1099 141.773 45.6852 142.211 45.1346 142.538C44.5839 142.855 43.9212 143.047 43.1466 143.112V146.36H41.9426V143.112C41.2052 143.047 40.5566 142.855 39.9966 142.538C39.4366 142.211 39.0026 141.773 38.6946 141.222C38.3866 140.662 38.2326 140.004 38.2326 139.248C38.2326 138.483 38.3819 137.825 38.6806 137.274C38.9792 136.714 39.4086 136.275 39.9686 135.958C40.5286 135.631 41.2006 135.44 41.9846 135.384V132.36H43.1466V135.384ZM41.9846 136.406C41.4152 136.462 40.9486 136.607 40.5846 136.84C40.2206 137.073 39.9499 137.391 39.7726 137.792C39.6046 138.193 39.5206 138.679 39.5206 139.248C39.5206 139.808 39.6046 140.293 39.7726 140.704C39.9499 141.105 40.2206 141.427 40.5846 141.67C40.9486 141.903 41.4152 142.048 41.9846 142.104V136.406ZM43.1466 142.104C43.7066 142.039 44.1639 141.889 44.5186 141.656C44.8826 141.423 45.1486 141.105 45.3166 140.704C45.4939 140.293 45.5826 139.808 45.5826 139.248C45.5826 138.688 45.4939 138.207 45.3166 137.806C45.1392 137.405 44.8686 137.087 44.5046 136.854C44.1499 136.621 43.6972 136.476 43.1466 136.42V142.104ZM55.3351 139.234C55.3351 139.859 55.2511 140.415 55.0831 140.9C54.9244 141.376 54.6911 141.782 54.3831 142.118C54.0844 142.454 53.7158 142.711 53.2771 142.888C52.8478 143.056 52.3671 143.14 51.8351 143.14C51.3404 143.14 50.8831 143.056 50.4631 142.888C50.0431 142.711 49.6791 142.454 49.3711 142.118C49.0631 141.782 48.8204 141.376 48.6431 140.9C48.4751 140.415 48.3911 139.859 48.3911 139.234C48.3911 138.403 48.5311 137.703 48.8111 137.134C49.0911 136.555 49.4924 136.117 50.0151 135.818C50.5378 135.51 51.1584 135.356 51.8771 135.356C52.5584 135.356 53.1558 135.51 53.6691 135.818C54.1918 136.117 54.5978 136.555 54.8871 137.134C55.1858 137.703 55.3351 138.403 55.3351 139.234ZM49.6651 139.234C49.6651 139.822 49.7398 140.335 49.8891 140.774C50.0478 141.203 50.2904 141.535 50.6171 141.768C50.9438 142.001 51.3591 142.118 51.8631 142.118C52.3671 142.118 52.7824 142.001 53.1091 141.768C53.4358 141.535 53.6738 141.203 53.8231 140.774C53.9818 140.335 54.0611 139.822 54.0611 139.234C54.0611 138.637 53.9818 138.128 53.8231 137.708C53.6644 137.288 53.4218 136.966 53.0951 136.742C52.7778 136.509 52.3624 136.392 51.8491 136.392C51.0838 136.392 50.5284 136.644 50.1831 137.148C49.8378 137.652 49.6651 138.347 49.6651 139.234ZM60.8577 135.356C61.7817 135.356 62.5237 135.678 63.0837 136.322C63.653 136.966 63.9377 137.937 63.9377 139.234C63.9377 140.083 63.807 140.802 63.5457 141.39C63.2937 141.969 62.9343 142.407 62.4677 142.706C62.0103 142.995 61.469 143.14 60.8437 143.14C60.461 143.14 60.1203 143.089 59.8217 142.986C59.523 142.883 59.2663 142.753 59.0517 142.594C58.8463 142.426 58.669 142.244 58.5197 142.048H58.4357C58.4543 142.207 58.473 142.407 58.4917 142.65C58.5103 142.893 58.5197 143.103 58.5197 143.28V146.36H57.2877V135.496H58.2957L58.4637 136.518H58.5197C58.669 136.303 58.8463 136.107 59.0517 135.93C59.2663 135.753 59.5183 135.613 59.8077 135.51C60.1063 135.407 60.4563 135.356 60.8577 135.356ZM60.6337 136.392C60.1297 136.392 59.7237 136.49 59.4157 136.686C59.1077 136.873 58.8837 137.157 58.7437 137.54C58.6037 137.923 58.529 138.408 58.5197 138.996V139.234C58.5197 139.85 58.585 140.373 58.7157 140.802C58.8463 141.231 59.0657 141.558 59.3737 141.782C59.691 142.006 60.1203 142.118 60.6617 142.118C61.119 142.118 61.4923 141.992 61.7817 141.74C62.0803 141.488 62.2997 141.147 62.4397 140.718C62.589 140.279 62.6637 139.78 62.6637 139.22C62.6637 138.361 62.4957 137.675 62.1597 137.162C61.833 136.649 61.3243 136.392 60.6337 136.392ZM73.9509 135.496V143H72.8449V138.212C72.8449 138.016 72.8496 137.811 72.8589 137.596C72.8776 137.381 72.8963 137.171 72.9149 136.966H72.8729L70.4229 143H69.3869L67.0069 136.966H66.9649C66.9836 137.171 66.9929 137.381 66.9929 137.596C67.0023 137.811 67.0069 138.03 67.0069 138.254V143H65.9009V135.496H67.5389L69.9049 141.53L72.3129 135.496H73.9509ZM77.5083 140.074C77.5083 140.158 77.5036 140.279 77.4943 140.438C77.4943 140.587 77.4896 140.751 77.4803 140.928C77.4709 141.096 77.4616 141.259 77.4523 141.418C77.4429 141.567 77.4336 141.689 77.4243 141.782L81.4423 135.496H82.9543V143H81.8063V138.576C81.8063 138.427 81.8063 138.231 81.8063 137.988C81.8156 137.745 81.8249 137.507 81.8343 137.274C81.8436 137.031 81.8529 136.849 81.8623 136.728L77.8723 143H76.3463V135.496H77.5083V140.074ZM90.5223 136.532H88.0723V143H86.8543V136.532H84.4323V135.496H90.5223V136.532ZM95.4585 138.576C96.1119 138.576 96.6532 138.655 97.0825 138.814C97.5119 138.973 97.8339 139.211 98.0485 139.528C98.2725 139.836 98.3845 140.228 98.3845 140.704C98.3845 141.171 98.2772 141.577 98.0625 141.922C97.8572 142.267 97.5352 142.533 97.0965 142.72C96.6579 142.907 96.0932 143 95.4025 143H92.0005V135.496H93.2325V138.576H95.4585ZM97.1525 140.774C97.1525 140.317 96.9892 140.009 96.6625 139.85C96.3452 139.682 95.8972 139.598 95.3185 139.598H93.2325V142.006H95.3465C95.8692 142.006 96.2985 141.913 96.6345 141.726C96.9799 141.539 97.1525 141.222 97.1525 140.774Z" fill="black"/>
<path d="M135.596 145.604H134.392V143H128.19V135.496H129.422V141.964H133.3V135.496H134.532V141.978H135.596V145.604ZM139.934 135.356C140.578 135.356 141.128 135.496 141.586 135.776C142.052 136.056 142.407 136.453 142.65 136.966C142.902 137.47 143.028 138.063 143.028 138.744V139.486H137.89C137.908 140.335 138.123 140.984 138.534 141.432C138.954 141.871 139.537 142.09 140.284 142.09C140.76 142.09 141.18 142.048 141.544 141.964C141.917 141.871 142.3 141.74 142.692 141.572V142.65C142.309 142.818 141.931 142.939 141.558 143.014C141.184 143.098 140.741 143.14 140.228 143.14C139.518 143.14 138.888 142.995 138.338 142.706C137.796 142.417 137.372 141.987 137.064 141.418C136.765 140.839 136.616 140.135 136.616 139.304C136.616 138.483 136.751 137.778 137.022 137.19C137.302 136.602 137.689 136.149 138.184 135.832C138.688 135.515 139.271 135.356 139.934 135.356ZM139.92 136.364C139.332 136.364 138.865 136.555 138.52 136.938C138.184 137.311 137.983 137.834 137.918 138.506H141.74C141.74 138.077 141.674 137.703 141.544 137.386C141.413 137.069 141.212 136.821 140.942 136.644C140.68 136.457 140.34 136.364 139.92 136.364ZM146.17 135.496V138.618H150.244V135.496H151.476V143H150.244V139.654H146.17V143H144.938V135.496H146.17ZM156.694 135.37C157.609 135.37 158.285 135.571 158.724 135.972C159.163 136.373 159.382 137.013 159.382 137.89V143H158.486L158.248 141.936H158.192C157.977 142.207 157.753 142.435 157.52 142.622C157.296 142.799 157.035 142.93 156.736 143.014C156.447 143.098 156.092 143.14 155.672 143.14C155.224 143.14 154.818 143.061 154.454 142.902C154.099 142.743 153.819 142.501 153.614 142.174C153.409 141.838 153.306 141.418 153.306 140.914C153.306 140.167 153.6 139.593 154.188 139.192C154.776 138.781 155.681 138.557 156.904 138.52L158.178 138.478V138.03C158.178 137.405 158.043 136.971 157.772 136.728C157.501 136.485 157.119 136.364 156.624 136.364C156.232 136.364 155.859 136.425 155.504 136.546C155.149 136.658 154.818 136.789 154.51 136.938L154.132 136.014C154.459 135.837 154.846 135.687 155.294 135.566C155.742 135.435 156.209 135.37 156.694 135.37ZM157.058 139.374C156.125 139.411 155.476 139.561 155.112 139.822C154.757 140.083 154.58 140.452 154.58 140.928C154.58 141.348 154.706 141.656 154.958 141.852C155.219 142.048 155.551 142.146 155.952 142.146C156.587 142.146 157.114 141.973 157.534 141.628C157.954 141.273 158.164 140.732 158.164 140.004V139.332L157.058 139.374Z" fill="black"/>
</g>
<defs>
<filter id="filter0_dn_194_154" x="0.1" y="0.1" width="213.8" height="191.8" filterUnits="userSpaceOnUse" color-interpolation-filters="sRGB">
<feFlood flood-opacity="0" result="BackgroundImageFix"/>
<feColorMatrix in="SourceAlpha" type="matrix" values="0 0 0 0 0 0 0 0 0 0 0 0 0 0 0 0 0 0 127 0" result="hardAlpha"/>
<feMorphology radius="5" operator="dilate" in="SourceAlpha" result="effect1_dropShadow_194_154"/>
<feOffset dx="11" dy="12"/>
<feGaussianBlur stdDeviation="5.95"/>
<feComposite in2="hardAlpha" operator="out"/>
<feColorMatrix type="matrix" values="0 0 0 0 0 0 0 0 0 0 0 0 0 0 0 0 0 0 0.25 0"/>
<feBlend mode="normal" in2="BackgroundImageFix" result="effect1_dropShadow_194_154"/>
<feBlend mode="normal" in="SourceGraphic" in2="BackgroundImageFix" result="shape"/>
<feTurbulence type="fractalNoise" baseFrequency="0.125 0.125" stitchTiles="stitch" numOctaves="3" result="noise" seed="6466" />
<feColorMatrix in="noise" type="luminanceToAlpha" result="alphaNoise" />
<feComponentTransfer in="alphaNoise" result="coloredNoise1">
<feFuncA type="discrete" tableValues="0 0 0 0 0 0 0 0 0 0 0 0 0 1 1 1 1 1 1 1 1 1 1 1 1 1 1 1 1 1 1 1 1 1 1 1 0 0 0 0 0 0 0 0 0 0 0 0 0 0 0 0 0 0 0 0 0 0 0 0 0 0 0 0 0 0 0 0 0 0 0 0 0 0 0 0 0 0 0 0 0 0 0 0 0 0 0 0 0 0 0 0 0 0 0 0 0 0 0 0 "/>
</feComponentTransfer>
<feComposite operator="in" in2="shape" in="coloredNoise1" result="noise1Clipped" />
<feFlood flood-color="rgba(0, 0, 0, 0.25)" result="color1Flood" />
<feComposite operator="in" in2="noise1Clipped" in="color1Flood" result="color1" />
<feMerge result="effect2_noise_194_154">
<feMergeNode in="shape" />
<feMergeNode in="color1" />
</feMerge>
<feBlend mode="normal" in="effect2_noise_194_154" in2="effect1_dropShadow_194_154" result="effect2_noise_194_154"/>
</filter>
</defs>
</svg>
