<svg width="161" height="144" viewBox="0 0 161 144" fill="none" xmlns="http://www.w3.org/2000/svg">
<g clip-path="url(#clip0_91_42)">
<path d="M109.816 65.9726C113.89 67.7674 118.22 69.686 121.829 71.2973L99.1685 54.585L99.8009 56.0793C99.8056 56.0747 104.487 60.7096 109.816 65.9726Z" fill="black"/>
<path d="M144.938 92.0478C144.928 92.0391 144.913 92.0345 144.898 92.0254C144.928 92.0254 144.953 92.03 144.953 92.03L126.424 78.3835L123.053 78.9316C123.226 79.0997 123.369 79.2409 123.527 79.3912L116.858 87.0831L99.6205 75.1387V75.0459L99.3932 74.9838L99.146 74.8112L99.0664 74.9043L88.4776 72.1722C88.4776 78.7635 82.5059 84.1037 75.1426 84.1037C67.7767 84.1037 61.8075 78.7635 61.8075 72.1722L47.2389 75.0368L47.224 75.0145L29.5116 87.2951L22.6724 79.3909L41.853 63.7284L42.6464 63.081C42.7133 63.0258 42.7577 62.986 42.77 62.9773C43.2894 62.5506 42.8961 61.9074 42.419 61.441C41.9394 60.9724 37.2161 56.5298 36.5586 55.8885C35.6366 56.5033 35.7428 57.0779 36.2593 57.5818C36.7762 58.0834 40.1918 61.4323 40.1918 61.4323L40.318 62.2213L40.1478 62.3606L35.1646 57.4845L34.4525 58.0657L39.4332 62.944L38.81 63.4524L33.8344 58.5718L33.1249 59.151L38.1055 64.0313L37.5099 64.5155L32.5279 59.6356L31.8209 60.2171L36.8016 65.0954L36.184 65.597L31.2033 60.7233L30.4887 61.3025L35.4694 66.1831L34.8784 66.6673L29.8951 61.7867L29.1881 62.3659L34.1688 67.2461L33.6672 67.6531L28.6865 62.7748L27.9723 63.3536L32.953 68.2319L32.362 68.7184L27.3821 63.8374L26.6675 64.4166L31.6482 69.2973L31.0153 69.808L26.0346 64.9296L25.3251 65.5088L30.3058 70.3872L29.7199 70.8801L24.7392 66.0017L24.0297 66.581L29.0103 71.4616L28.3923 71.9609L23.4124 67.0822L22.6978 67.6656L27.6785 72.5439L27.0828 73.0304L22.1021 68.1521L21.3926 68.7313L26.3733 73.6096L25.7925 74.0825L20.8092 69.2068L20.1027 69.7856L25.0834 74.6662L24.4903 75.1481L19.5096 70.2698L18.8 70.849L23.7833 75.7274L23.1652 76.2313L18.1819 71.3506L17.475 71.9299L22.4556 76.8059L21.8575 77.2879L16.8768 72.4118L16.1626 72.991L21.1433 77.8712L20.6437 78.2782L15.663 73.3976L14.9484 73.9765L19.9291 78.8571L19.336 79.3522L14.3557 74.4758L13.6415 75.055L18.6294 79.9311L18.0016 80.4478L13.0184 75.5676L12.3114 76.1468L17.2921 81.0271L16.6939 81.5135L11.7132 76.6329L11.0037 77.2167L15.9869 82.0969L15.3692 82.6012L10.386 77.7206L9.67435 78.2998L14.655 83.1804L14.0619 83.6623L9.08124 78.7817L8.36662 79.3609L13.3499 84.2415L12.8478 84.6527L7.86242 79.7721L7.15331 80.3513L12.134 85.2311L11.5358 85.7131L6.56528 80.8366L5.85829 81.4204L10.839 86.301L10.3369 86.7076L5.3562 81.8315L4.64159 82.4107L9.62228 87.2864L9.03128 87.7729L4.04848 82.8923L3.34149 83.4715L8.32683 88.3521L7.70917 88.856L2.7289 83.9758L2.01979 84.5505L7.00048 89.4314L6.71853 89.6658L5.84601 89.4799C5.84601 89.4799 2.42494 86.1291 1.91311 85.6294C1.39662 85.1255 0.7688 84.9748 0 85.7445C0.657459 86.39 5.17331 90.9961 5.65508 91.4693C6.12965 91.938 6.81421 92.3446 7.33112 91.9202C7.37049 91.8892 7.69435 91.6192 8.25063 91.1687L13.4612 86.9203L19.6823 94.0993L20.3546 94.8731L27.3148 102.901L37.145 96.0936L37.1302 96.0758L48.0944 88.4808L50.1854 127.299H96.1893L98.7205 88.5736L109.25 95.868L109.235 95.8812L119.068 102.693L126.028 94.6653L126.7 93.8869L130.299 89.7317C131.348 93.1975 131.337 95.9248 131.337 96.0622C130.957 98.7323 132.281 101.65 135.055 103.555C139.03 106.283 144.487 105.92 147.211 102.746C149.931 99.5852 148.912 94.7754 144.938 92.0478ZM145.121 101.323C143.282 103.466 139.475 103.634 136.652 101.698C133.83 99.762 133.029 96.4332 134.868 94.2931C136.712 92.1405 140.508 91.977 143.331 93.9176C146.164 95.8544 146.964 99.1786 145.121 101.323Z" fill="black"/>
<path d="M157.205 78.8608C154.372 76.9115 150.788 76.5488 147.98 77.6407C147.308 77.8042 138.222 79.8553 130.045 76.0934C128.859 75.3461 96.4 61.1029 96.4 61.1029L94.7041 61.0125L122.165 78.065L126.842 77.309L146.961 90.0981C147.08 90.1908 147.199 90.284 147.327 90.3763C151.302 93.104 156.75 92.7417 159.478 89.5719C162.198 86.3937 161.179 81.5888 157.205 78.8608ZM123.99 76.129C123.52 76.6726 122.65 76.7786 122.046 76.3588C121.434 75.9344 121.325 75.1606 121.789 74.617C122.254 74.0733 123.129 73.976 123.738 74.3913C124.34 74.807 124.454 75.5854 123.99 76.129ZM157.383 88.1401C155.543 90.2843 151.747 90.4521 148.914 88.5111C146.092 86.5751 145.296 83.2466 147.13 81.1024C148.979 78.9539 152.775 78.7859 155.593 80.7268C158.42 82.6629 159.227 85.9917 157.383 88.1401Z" fill="black"/>
<path d="M47.2615 42.1185C47.0837 42.5694 47.0884 43.6922 47.2268 44.7931C47.2268 44.9521 47.1747 45.1005 47.1747 45.2637C47.1747 45.9974 47.212 46.7205 47.2861 47.4367C48.5371 59.2332 59.4819 68.1275 72.745 68.1275C86.8488 68.1275 98.3177 57.8714 98.3177 45.2637C98.3177 44.6296 98.1691 44.0371 98.1052 43.4159C98.2089 42.6799 98.3029 41.8951 98.377 40.9778C99.2863 39.5366 98.8715 31.9817 95.9846 31.836C96.1527 27.6716 94.2544 27.6364 93.5923 26.531C92.9395 25.4214 92.401 22.3269 91.1255 22.1853C91.7435 24.431 91.4963 24.6896 91.1255 24.3954C90.7495 24.0949 87.7442 18.8629 85.851 18.7899C87.7493 21.0045 88.8169 23.0314 88.491 22.8459C88.1595 22.6604 78.1418 16.9488 73.156 16.73C68.1681 16.5089 61.9466 20.1936 61.9466 20.1936C61.9466 20.1936 61.6549 18.3526 63.5109 16.73C62.149 16.3586 60.2211 19.7272 59.8824 20.2667C59.7194 20.5188 57.1188 20.1251 54.6473 21.1488C51.8887 22.2936 49.1945 24.9285 48.2602 26.6082C46.4877 29.778 46.903 33.9465 46.9377 34.5678C46.9724 35.1909 45.823 36.5591 46.0304 37.9985C46.2332 39.4242 47.6375 41.1573 47.2615 42.1185ZM52.0445 48.1969C52.7342 46.3998 53.9898 45.6574 53.9382 44.5122C53.859 42.4479 52.3955 42.8367 52.376 40.7545C52.3663 39.6229 52.6033 38.3695 52.9767 37.1959C53.8023 35.5846 54.9021 34.1192 56.1679 32.7775C59.5589 31.8515 69.7625 34.8423 71.9918 34.1192C73.0646 32.9365 82.4202 32.2407 87.1557 33.1224C89.1035 33.4892 91.625 36.0158 92.7219 40.1976C93.503 43.1948 93.8243 46.7402 93.9479 49.5318C91.7579 58.2141 83.1017 64.7278 72.7403 64.7278C62.5393 64.7278 54.0093 58.5279 51.6614 49.9338C51.7528 49.2933 51.8591 48.6811 52.0445 48.1969Z" fill="black"/>
</g>
<rect x="0.5" y="0.5" width="160" height="143" stroke="#7C7C7C"/>
<defs>
<clipPath id="clip0_91_42">
<rect width="161" height="144" fill="white"/>
</clipPath>
</defs>
</svg>
