<svg width="276" height="217" viewBox="0 0 276 217" fill="none" xmlns="http://www.w3.org/2000/svg">
<g clip-path="url(#clip0_91_209)">
<path d="M188.254 99.6776C195.236 102.364 202.66 105.236 208.847 107.648L170 82.6319L171.084 84.8686C171.092 84.8618 179.118 91.7996 188.254 99.6776Z" fill="black"/>
<path d="M248.462 138.709C248.445 138.696 248.419 138.689 248.394 138.675C248.444 138.675 248.487 138.682 248.487 138.682L216.724 118.255L210.945 119.076C211.241 119.327 211.487 119.539 211.758 119.764L200.326 131.277L170.775 113.398V113.259L170.385 113.166L169.962 112.908L169.825 113.047L151.673 108.958C151.673 118.824 141.436 126.818 128.813 126.818C116.186 126.818 105.953 118.824 105.953 108.958L80.9779 113.246L80.9525 113.212L50.5883 131.595L38.864 119.763L71.7451 96.3183L73.1051 95.3493C73.2198 95.2666 73.296 95.2071 73.317 95.1941C74.2075 94.5554 73.5333 93.5926 72.7154 92.8945C71.8931 92.1929 63.7961 85.5429 62.669 84.583C61.0883 85.5033 61.2705 86.3635 62.1559 87.1177C63.042 87.8686 68.8973 92.8814 68.8973 92.8814L69.1135 94.0624L68.8218 94.2709L60.2791 86.9721L59.0584 87.842L67.5968 95.1442L66.5285 95.9052L57.9989 88.5996L56.7825 89.4666L65.3208 96.7717L64.2997 97.4965L55.7592 90.192L54.5472 91.0624L63.0856 98.3646L62.0267 99.1155L53.4884 91.8201L52.2633 92.6871L60.8017 99.9927L59.7885 100.717L51.2458 93.4118L50.0339 94.2789L58.5722 101.584L57.7122 102.193L49.1739 94.8909L47.9495 95.7573L56.4879 103.06L55.4747 103.788L46.9379 96.4816L45.7128 97.3486L54.2511 104.654L53.1662 105.419L44.6278 98.1164L43.4115 98.9834L51.9498 106.286L50.9454 107.023L42.4071 99.7213L41.1907 100.588L49.7291 107.894L48.6695 108.641L40.1326 101.339L38.9076 102.212L47.4459 109.514L46.4248 110.242L37.8864 102.94L36.6701 103.807L45.2084 111.109L44.2127 111.817L35.67 104.519L34.4588 105.385L42.9971 112.691L41.9803 113.412L33.442 106.11L32.2257 106.977L40.7684 114.279L39.7088 115.034L31.1661 107.728L29.9541 108.595L38.4924 115.894L37.467 116.615L28.9287 109.316L27.7043 110.183L36.2427 117.488L35.3863 118.098L26.848 110.792L25.6229 111.658L34.1612 118.964L33.1445 119.705L24.6069 112.406L23.3826 113.273L31.9332 120.572L30.8569 121.345L22.3143 114.04L21.1023 114.907L29.6406 122.212L28.6151 122.94L20.0768 115.635L18.8605 116.509L27.4032 123.814L26.3443 124.568L17.8016 117.263L16.5817 118.13L25.12 125.435L24.1032 126.157L15.5649 118.851L14.3398 119.718L22.8825 127.024L22.0218 127.639L13.4755 120.334L12.2599 121.201L20.7982 128.505L19.7727 129.227L11.2518 121.927L10.0398 122.801L18.5782 130.107L17.7174 130.715L9.17912 123.416L7.95407 124.283L16.4924 131.582L15.4793 132.31L6.93731 125.004L5.72533 125.871L14.2716 133.177L13.2128 133.931L4.67518 126.626L3.45957 127.486L11.9979 134.793L11.5145 135.143L10.0188 134.865C10.0188 134.865 4.1541 129.849 3.27668 129.101C2.39128 128.347 1.31501 128.122 -0.00292969 129.274C1.12414 130.24 8.8656 137.135 9.69149 137.843C10.505 138.544 11.6786 139.153 12.5647 138.518C12.6322 138.471 13.1874 138.067 14.141 137.393L23.0734 131.034L33.7381 141.78L34.8906 142.938L46.8225 154.955L63.6741 144.765L63.6487 144.738L82.4446 133.37L86.0291 191.475H164.893L169.232 133.508L187.282 144.427L187.257 144.447L204.113 154.644L216.045 142.627L217.198 141.462L223.367 135.242C225.164 140.43 225.147 144.512 225.147 144.718C224.494 148.715 226.765 153.082 231.519 155.934C238.333 160.017 247.689 159.474 252.358 154.723C257.021 149.991 255.275 142.792 248.462 138.709ZM248.775 152.592C245.623 155.801 239.098 156.052 234.258 153.155C229.419 150.256 228.047 145.273 231.199 142.07C234.36 138.848 240.868 138.603 245.707 141.508C250.564 144.407 251.936 149.383 248.775 152.592Z" fill="black"/>
<path d="M269.49 118.97C264.635 116.052 258.49 115.509 253.677 117.143C252.524 117.388 236.948 120.458 222.931 114.827C220.898 113.709 165.254 92.3884 165.254 92.3884L162.347 92.253L209.422 117.779L217.44 116.647L251.93 135.79C252.134 135.929 252.338 136.069 252.558 136.207C259.371 140.29 268.71 139.748 273.388 135.003C278.05 130.245 276.304 123.053 269.49 118.97ZM212.55 114.881C211.746 115.694 210.253 115.853 209.219 115.224C208.169 114.589 207.982 113.431 208.779 112.617C209.576 111.803 211.076 111.658 212.119 112.279C213.151 112.902 213.347 114.067 212.55 114.881ZM269.796 132.86C266.643 136.069 260.135 136.32 255.278 133.415C250.44 130.517 249.075 125.535 252.219 122.325C255.389 119.109 261.897 118.857 266.728 121.763C271.575 124.661 272.957 129.644 269.796 132.86Z" fill="black"/>
<path d="M81.0167 63.9711C80.7119 64.6461 80.7199 66.3268 80.9572 67.9747C80.9572 68.2127 80.8679 68.4349 80.8679 68.6791C80.8679 69.7773 80.9318 70.8597 81.0588 71.9319C83.2034 89.5896 101.966 102.903 124.703 102.903C148.881 102.903 168.542 87.5513 168.542 68.6791C168.542 67.7299 168.287 66.8431 168.177 65.9132C168.355 64.8115 168.516 63.6368 168.643 62.2637C170.202 60.1064 169.491 48.7977 164.542 48.5795C164.83 42.3461 161.576 42.2934 160.441 40.6387C159.322 38.9777 158.399 34.3457 156.212 34.1338C157.272 37.4953 156.848 37.8823 156.212 37.442C155.568 36.9921 150.416 29.1606 147.17 29.0512C150.424 32.3663 152.255 35.4003 151.696 35.1226C151.127 34.8449 133.954 26.2954 125.407 25.9679C116.857 25.637 106.191 31.1524 106.191 31.1524C106.191 31.1524 105.691 28.3967 108.873 25.9679C106.538 25.412 103.233 30.4543 102.652 31.2618C102.373 31.6392 97.9148 31.0499 93.6779 32.5822C88.949 34.2958 84.3304 38.2399 82.7287 40.7543C79.69 45.4991 80.402 51.7388 80.4615 52.6687C80.521 53.6015 78.5506 55.6494 78.9062 57.804C79.2539 59.9381 81.6612 62.5323 81.0167 63.9711ZM89.2161 73.0698C90.3983 70.3797 92.5509 69.2685 92.4623 67.5543C92.3266 64.4642 89.8177 65.0461 89.7844 61.9294C89.7677 60.2356 90.1741 58.3593 90.8142 56.6026C92.2294 54.1908 94.1148 51.9972 96.2848 49.9889C102.098 48.6028 119.59 53.0796 123.411 51.9972C125.25 50.2269 141.289 49.1853 149.407 50.5051C152.746 51.0542 157.068 54.8363 158.949 61.0958C160.288 65.5822 160.839 70.8892 161.05 75.0679C157.296 88.0641 142.457 97.8144 124.695 97.8144C107.207 97.8144 92.5843 88.5339 88.5593 75.6697C88.7161 74.7109 88.8982 73.7945 89.2161 73.0698Z" fill="black"/>
</g>
<rect x="0.5" y="1.44531" width="275" height="214.509" stroke="#7C7C7C"/>
<defs>
<clipPath id="clip0_91_209">
<rect y="0.945312" width="276" height="215.509" fill="white"/>
</clipPath>
</defs>
</svg>
