<svg width="578" height="308" viewBox="0 0 578 308" fill="none" xmlns="http://www.w3.org/2000/svg">
<rect x="0.5" y="0.5" width="577" height="307" stroke="#7C7C7C"/>
<path d="M394.242 141.105C408.864 144.945 424.412 149.05 437.367 152.496L356.015 116.744L358.285 119.941C358.302 119.931 375.11 129.846 394.242 141.105Z" fill="black"/>
<path d="M520.336 196.888C520.301 196.869 520.246 196.859 520.193 196.84C520.299 196.84 520.389 196.85 520.389 196.85L453.87 167.656L441.767 168.829C442.387 169.188 442.902 169.49 443.471 169.812L419.529 186.267L357.644 160.714V160.516L356.828 160.383L355.94 160.014L355.654 160.213L317.64 154.368C317.64 168.469 296.201 179.893 269.766 179.893C243.323 179.893 221.893 168.469 221.893 154.368L169.59 160.496L169.537 160.449L105.948 186.72L81.3953 169.811L150.255 136.304L153.103 134.92C153.343 134.801 153.503 134.716 153.547 134.698C155.412 133.785 154 132.409 152.287 131.411C150.565 130.409 133.608 120.905 131.248 119.533C127.937 120.848 128.319 122.077 130.173 123.155C132.029 124.228 144.291 131.393 144.291 131.393L144.744 133.08L144.133 133.378L126.243 122.947L123.686 124.19L141.567 134.626L139.33 135.714L121.467 125.273L118.92 126.512L136.801 136.952L134.663 137.988L116.777 127.549L114.239 128.793L132.12 139.229L129.903 140.302L112.022 129.876L109.456 131.115L127.337 141.556L125.215 142.592L107.325 132.151L104.787 133.39L122.668 143.83L120.867 144.701L102.986 134.264L100.422 135.503L118.303 145.939L116.181 146.98L98.3036 136.538L95.7381 137.777L113.619 148.218L111.347 149.31L93.4659 138.874L90.9186 140.113L108.8 150.549L106.696 151.604L88.8152 141.168L86.2679 142.407L104.149 152.848L101.93 153.916L84.052 143.479L81.4865 144.727L99.3674 155.163L97.229 156.204L79.3481 145.768L76.8008 147.007L94.6818 157.443L92.5965 158.455L74.7064 148.024L72.1698 149.263L90.0508 159.704L87.9215 160.735L70.0405 150.298L67.4933 151.538L85.3834 161.974L83.1644 163.052L65.2743 152.611L62.7361 153.85L80.6171 164.281L78.4696 165.312L60.5886 154.881L58.0246 156.12L75.9056 166.56L74.1122 167.431L56.2312 156.99L53.6657 158.228L71.5467 168.669L69.4174 169.728L51.5379 159.296L48.974 160.535L66.8808 170.967L64.6268 172.072L46.7367 161.632L44.1986 162.871L62.0796 173.311L59.932 174.352L42.0511 163.911L39.5038 165.16L57.3939 175.6L55.1764 176.679L37.2864 166.238L34.7315 167.477L52.6125 177.918L50.4832 178.949L32.6022 168.508L30.0367 169.747L47.9268 180.188L46.1242 181.067L28.2266 170.626L25.6808 171.866L43.5618 182.305L41.4142 183.336L23.5698 172.904L21.0316 174.153L38.9126 184.594L37.11 185.464L19.2291 175.032L16.6636 176.271L34.5445 186.702L32.4228 187.743L14.5343 177.302L11.9961 178.541L29.8938 188.982L27.6764 190.06L9.79692 179.619L7.25118 180.849L25.1322 191.291L24.1199 191.792L20.9875 191.394C20.9875 191.394 8.70567 184.226 6.86818 183.157C5.01397 182.079 2.76004 181.757 0 183.403C2.36032 184.784 18.5725 194.638 20.3021 195.65C22.0058 196.653 24.4634 197.523 26.3191 196.615C26.4605 196.548 27.6232 195.971 29.6203 195.007L48.3265 185.919L70.6606 201.276L73.0741 202.932L98.0619 220.106L133.353 205.543L133.299 205.505L172.662 189.257L180.168 272.299H345.325L354.413 189.455L392.213 205.06L392.161 205.089L427.461 219.662L452.449 202.487L454.862 200.822L467.782 191.933C471.545 199.347 471.509 205.182 471.509 205.476C470.143 211.188 474.898 217.43 484.855 221.506C499.125 227.34 518.717 226.564 528.496 219.774C538.261 213.012 534.604 202.723 520.336 196.888ZM520.992 216.729C514.39 221.315 500.725 221.674 490.591 217.533C480.456 213.391 477.582 206.269 484.185 201.691C490.803 197.086 504.433 196.736 514.566 200.888C524.737 205.031 527.611 212.143 520.992 216.729Z" fill="black"/>
<path d="M564.367 168.677C554.199 164.507 541.331 163.731 531.25 166.067C528.836 166.417 496.217 170.805 466.863 162.757C462.604 161.158 346.075 130.688 346.075 130.688L339.986 130.494L438.572 166.975L455.362 165.357L527.593 192.717C528.018 192.915 528.445 193.115 528.906 193.312C543.176 199.147 562.733 198.372 572.529 191.591C582.292 184.792 578.637 174.513 564.367 168.677ZM445.123 162.833C443.437 163.996 440.313 164.223 438.147 163.325C435.948 162.417 435.556 160.761 437.224 159.598C438.893 158.435 442.035 158.227 444.219 159.116C446.381 160.005 446.792 161.67 445.123 162.833ZM565.007 188.528C558.403 193.115 544.775 193.474 534.604 189.322C524.471 185.18 521.614 178.06 528.198 173.472C534.835 168.876 548.465 168.517 558.581 172.669C568.732 176.811 571.626 183.932 565.007 188.528Z" fill="black"/>
<path d="M169.665 90.0747C169.027 91.0393 169.043 93.4414 169.54 95.7966C169.54 96.1367 169.353 96.4542 169.353 96.8032C169.353 98.3728 169.487 99.9197 169.753 101.452C174.244 126.688 213.537 145.715 261.152 145.715C311.786 145.715 352.96 123.775 352.96 96.8032C352.96 95.4467 352.426 94.1792 352.197 92.8502C352.569 91.2758 352.906 89.5969 353.172 87.6346C356.437 84.5513 354.948 68.3893 344.584 68.0775C345.187 59.1688 338.372 59.0935 335.995 56.7286C333.652 54.3549 331.718 47.7349 327.139 47.432C329.358 52.2362 328.47 52.7894 327.139 52.1601C325.789 51.517 315 40.3245 308.203 40.1681C315.018 44.906 318.851 49.2421 317.681 48.8452C316.491 48.4484 280.527 36.2297 262.628 35.7616C244.721 35.2886 222.385 43.1712 222.385 43.1712C222.385 43.1712 221.338 39.2327 228.001 35.7616C223.112 34.9671 216.19 42.1734 214.974 43.3275C214.389 43.8669 205.053 43.0246 196.18 45.2145C186.277 47.6636 176.604 53.3004 173.25 56.8938C166.887 63.675 168.378 72.5926 168.502 73.9216C168.627 75.2547 164.5 78.1816 165.245 81.2608C165.973 84.3108 171.014 88.0185 169.665 90.0747ZM186.836 103.078C189.312 99.2337 193.82 97.6455 193.634 95.1956C193.35 90.7793 188.096 91.6111 188.026 87.1567C187.991 84.736 188.842 82.0545 190.183 79.5438C193.146 76.097 197.095 72.9619 201.639 70.0917C213.813 68.1107 250.445 74.5088 258.448 72.9619C262.299 70.4318 295.886 68.9433 312.887 70.8295C319.88 71.6143 328.932 77.0194 332.87 85.9654C335.674 92.3772 336.828 99.9618 337.272 105.934C329.41 124.508 298.333 138.443 261.135 138.443C224.513 138.443 193.89 125.179 185.461 106.794C185.789 105.424 186.17 104.114 186.836 103.078Z" fill="black"/>
</svg>
