<svg width="276" height="216" viewBox="0 0 276 216" fill="none" xmlns="http://www.w3.org/2000/svg">
<g clip-path="url(#clip0_91_209)">
<path d="M188.254 98.7324C195.236 101.419 202.66 104.291 208.847 106.703L170 81.6866L171.084 83.9233C171.092 83.9165 179.118 90.8544 188.254 98.7324Z" fill="black"/>
<path d="M248.462 137.764C248.445 137.751 248.419 137.744 248.394 137.73C248.444 137.73 248.487 137.737 248.487 137.737L216.724 117.31L210.945 118.13C211.241 118.382 211.487 118.593 211.758 118.818L200.326 130.332L170.775 112.453V112.314L170.385 112.221L169.962 111.963L169.825 112.102L151.673 108.012C151.673 117.879 141.436 125.872 128.813 125.872C116.186 125.872 105.953 117.879 105.953 108.012L80.9779 112.3L80.9525 112.267L50.5883 130.649L38.864 118.818L71.7451 95.3731L73.1051 94.404C73.2198 94.3213 73.296 94.2618 73.317 94.2488C74.2075 93.6101 73.5333 92.6473 72.7154 91.9492C71.8931 91.2476 63.7961 84.5977 62.669 83.6377C61.0883 84.558 61.2705 85.4182 62.1559 86.1725C63.042 86.9233 68.8973 91.9362 68.8973 91.9362L69.1135 93.1171L68.8218 93.3257L60.2791 86.0268L59.0584 86.8967L67.5968 94.1989L66.5285 94.96L57.9989 87.6543L56.7825 88.5213L65.3208 95.8264L64.2997 96.5512L55.7592 89.2467L54.5472 90.1171L63.0856 97.4194L62.0267 98.1702L53.4884 90.8748L52.2633 91.7418L60.8017 99.0474L59.7885 99.7722L51.2458 92.4666L50.0339 93.3336L58.5722 100.639L57.7122 101.248L49.1739 93.9456L47.9495 94.8121L56.4879 102.114L55.4747 102.842L46.9379 95.5363L45.7128 96.4033L54.2511 103.709L53.1662 104.473L44.6278 97.1711L43.4115 98.0382L51.9498 105.34L50.9454 106.078L42.4071 98.776L41.1907 99.643L49.7291 106.949L48.6695 107.696L40.1326 100.393L38.9076 101.267L47.4459 108.569L46.4248 109.297L37.8864 101.995L36.6701 102.862L45.2084 110.164L44.2127 110.872L35.67 103.573L34.4588 104.44L42.9971 111.746L41.9803 112.467L33.442 105.165L32.2257 106.032L40.7684 113.334L39.7088 114.088L31.1661 106.783L29.9541 107.65L38.4924 114.948L37.467 115.67L28.9287 108.371L27.7043 109.238L36.2426 116.543L35.3863 117.152L26.848 109.847L25.6229 110.713L34.1612 118.019L33.1445 118.76L24.6069 111.461L23.3826 112.328L31.9332 119.626L30.8569 120.4L22.3143 113.095L21.1023 113.962L29.6406 121.267L28.6151 121.995L20.0768 114.689L18.8605 115.563L27.4032 122.868L26.3443 123.623L17.8016 116.318L16.5817 117.185L25.12 124.49L24.1032 125.212L15.5649 117.906L14.3398 118.773L22.8825 126.079L22.0218 126.694L13.4755 119.388L12.2599 120.255L20.7982 127.56L19.7727 128.281L11.2518 120.982L10.0398 121.856L18.5782 129.161L17.7174 129.77L9.17912 122.471L7.95407 123.338L16.4924 130.636L15.4793 131.365L6.93731 124.059L5.72533 124.926L14.2716 132.232L13.2128 132.986L4.67518 125.681L3.45957 126.541L11.9979 133.847L11.5145 134.198L10.0188 133.92C10.0188 133.92 4.1541 128.904 3.27668 128.156C2.39128 127.402 1.31501 127.176 -0.00292969 128.328C1.12414 129.295 8.8656 136.189 9.69149 136.898C10.505 137.599 11.6786 138.208 12.5647 137.573C12.6322 137.526 13.1874 137.122 14.141 136.448L23.0734 130.088L33.7381 140.834L34.8906 141.993L46.8225 154.01L63.6741 143.82L63.6487 143.793L82.4446 132.424L86.0291 190.529H164.893L169.232 132.563L187.282 143.482L187.257 143.502L204.113 153.699L216.045 141.682L217.198 140.516L223.367 134.297C225.164 139.485 225.147 143.567 225.147 143.773C224.494 147.769 226.765 152.137 231.519 154.989C238.333 159.071 247.689 158.528 252.358 153.777C257.021 149.046 255.275 141.846 248.462 137.764ZM248.775 151.647C245.623 154.856 239.098 155.107 234.258 152.209C229.419 149.311 228.047 144.328 231.199 141.125C234.36 137.902 240.868 137.658 245.707 140.562C250.564 143.462 251.936 148.438 248.775 151.647Z" fill="black"/>
<path d="M269.49 118.024C264.635 115.107 258.49 114.564 253.677 116.198C252.524 116.443 236.948 119.513 222.931 113.882C220.898 112.763 165.254 91.4431 165.254 91.4431L162.347 91.3077L209.422 116.833L217.44 115.702L251.93 134.845C252.134 134.984 252.338 135.123 252.558 135.262C259.371 139.345 268.71 138.802 273.388 134.057C278.05 129.3 276.304 122.108 269.49 118.024ZM212.55 113.935C211.746 114.749 210.253 114.908 209.219 114.279C208.169 113.644 207.982 112.486 208.779 111.672C209.576 110.858 211.076 110.712 212.119 111.334C213.151 111.956 213.347 113.121 212.55 113.935ZM269.796 131.914C266.643 135.124 260.135 135.375 255.278 132.47C250.44 129.572 249.075 124.589 252.219 121.38C255.389 118.164 261.897 117.912 266.728 120.818C271.575 123.716 272.957 128.698 269.796 131.914Z" fill="black"/>
<path d="M81.0167 63.0259C80.7119 63.7008 80.7199 65.3815 80.9572 67.0294C80.9572 67.2675 80.8679 67.4896 80.8679 67.7338C80.8679 68.8321 80.9318 69.9144 81.0588 70.9866C83.2034 88.6443 101.966 101.958 124.703 101.958C148.881 101.958 168.542 86.606 168.542 67.7338C168.542 66.7846 168.287 65.8978 168.177 64.9679C168.355 63.8662 168.516 62.6915 168.643 61.3185C170.202 59.1611 169.491 47.8524 164.542 47.6343C164.83 41.4008 161.576 41.3481 160.441 39.6934C159.322 38.0324 158.399 33.4004 156.212 33.1885C157.272 36.55 156.848 36.9371 156.212 36.4967C155.568 36.0468 150.416 28.2153 147.17 28.1059C150.424 31.421 152.255 34.455 151.696 34.1773C151.127 33.8997 133.954 25.3502 125.407 25.0226C116.857 24.6917 106.191 30.2072 106.191 30.2072C106.191 30.2072 105.691 27.4514 108.873 25.0226C106.538 24.4667 103.233 29.509 102.652 30.3165C102.373 30.6939 97.9148 30.1046 93.6779 31.6369C88.949 33.3505 84.3304 37.2946 82.7287 39.809C79.69 44.5538 80.402 50.7935 80.4615 51.7234C80.521 52.6562 78.5506 54.7042 78.9062 56.8587C79.2539 58.9928 81.6612 61.5871 81.0167 63.0259ZM89.2161 72.1245C90.3983 69.4344 92.5509 68.3232 92.4623 66.609C92.3266 63.5189 89.8177 64.1008 89.7844 60.9841C89.7677 59.2903 90.1741 57.414 90.8142 55.6573C92.2294 53.2455 94.1148 51.0519 96.2848 49.0436C102.098 47.6575 119.59 52.1343 123.411 51.0519C125.25 49.2816 141.289 48.24 149.407 49.5598C152.746 50.109 157.068 53.891 158.949 60.1505C160.288 64.6369 160.839 69.9439 161.05 74.1226C157.296 87.1188 142.457 96.8691 124.695 96.8691C107.207 96.8691 92.5843 87.5886 88.5593 74.7244C88.7161 73.7656 88.8982 72.8493 89.2161 72.1245Z" fill="black"/>
</g>
<rect x="0.5" y="0.5" width="275" height="214.509" stroke="#7C7C7C"/>
<defs>
<clipPath id="clip0_91_209">
<rect width="276" height="215.509" fill="white"/>
</clipPath>
</defs>
</svg>
