<svg width="283" height="216" viewBox="0 0 283 216" fill="none" xmlns="http://www.w3.org/2000/svg">
<g clip-path="url(#clip0_84_386)">
<path d="M193.028 98.987C200.188 101.674 207.8 104.546 214.143 106.957L174.312 81.9413L175.423 84.178C175.431 84.1712 183.661 91.109 193.028 98.987Z" fill="black"/>
<path d="M254.763 138.018C254.746 138.005 254.719 137.998 254.693 137.985C254.745 137.985 254.789 137.992 254.789 137.992L222.22 117.564L216.294 118.385C216.598 118.637 216.85 118.848 217.129 119.073L205.406 130.587L175.106 112.707V112.569L174.706 112.476L174.272 112.217L174.132 112.357L155.519 108.267C155.519 118.133 145.022 126.127 132.079 126.127C119.132 126.127 108.64 118.133 108.64 108.267L83.0313 112.555L83.0053 112.522L51.871 130.904L39.8493 119.072L73.5643 95.6277L74.9588 94.6587C75.0764 94.576 75.1545 94.5165 75.1761 94.5034C76.0892 93.8648 75.3979 92.902 74.5592 92.2039C73.7161 91.5023 65.4137 84.8523 64.258 83.8924C62.6373 84.8127 62.824 85.6729 63.7319 86.4271C64.6405 87.178 70.6443 92.1908 70.6443 92.1908L70.866 93.3718L70.5669 93.5803L61.8075 86.2815L60.5559 87.1513L69.3108 94.4536L68.2154 95.2146L59.4694 87.909L58.2222 88.776L66.9771 96.0811L65.9301 96.8059L57.173 89.5014L55.9303 90.3718L64.6851 97.674L63.5994 98.4249L54.8446 91.1294L53.5884 91.9965L62.3433 99.3021L61.3045 100.027L52.5452 92.7212L51.3024 93.5883L60.0573 100.893L59.1755 101.503L50.4206 94.2003L49.1652 95.0667L57.9201 102.369L56.8813 103.097L48.1279 95.7909L46.8718 96.658L55.6267 103.964L54.5142 104.728L45.7593 97.4258L44.5121 98.2928L53.267 105.595L52.2371 106.333L43.4822 99.0307L42.235 99.8977L50.9899 107.203L49.9034 107.951L41.1501 100.648L39.8939 101.521L48.6488 108.823L47.6018 109.552L38.8469 102.249L37.5997 103.116L46.3546 110.419L45.3336 111.126L36.5743 103.828L35.3323 104.695L44.0872 112L43.0446 112.722L34.2898 105.419L33.0426 106.286L41.8019 113.589L40.7155 114.343L31.9561 107.037L30.7134 107.904L39.4683 115.203L38.4168 115.925L29.6619 108.626L28.4066 109.493L37.1614 116.798L36.2833 117.407L27.5285 110.101L26.2724 110.968L35.0272 118.273L33.9847 119.015L25.2306 111.715L23.9752 112.582L32.7427 119.881L31.6391 120.655L22.8798 113.35L21.6371 114.217L30.3919 121.522L29.3405 122.25L20.5856 114.944L19.3384 115.818L28.0977 123.123L27.012 123.878L18.2527 116.572L17.0018 117.439L25.7567 124.745L24.7141 125.466L15.9592 118.161L14.7031 119.028L23.4625 126.333L22.5799 126.949L13.8169 119.643L12.5704 120.51L21.3253 127.815L20.2738 128.536L11.5368 121.237L10.2941 122.11L19.0489 129.416L18.1664 130.025L9.41151 122.726L8.15539 123.593L16.9103 130.891L15.8714 131.619L7.11284 124.314L5.87012 125.181L14.6332 132.486L13.5475 133.241L4.79334 125.935L3.5469 126.796L12.3018 134.102L11.8062 134.453L10.2725 134.174C10.2725 134.174 4.25905 129.159 3.35938 128.411C2.45152 127.656 1.34795 127.431 -0.00341797 128.583C1.15224 129.549 9.09004 136.444 9.93688 137.152C10.7711 137.854 11.9743 138.462 12.8829 137.827C12.9522 137.781 13.5214 137.377 14.4992 136.702L23.6582 130.343L34.5934 141.089L35.7751 142.247L48.0096 154.264L65.2886 144.074L65.2626 144.048L84.5352 132.679L88.2106 190.784H169.075L173.524 132.818L192.031 143.737L192.006 143.756L209.29 153.953L221.524 141.936L222.706 140.771L229.032 134.551C230.874 139.739 230.857 143.822 230.857 144.027C230.188 148.024 232.516 152.391 237.391 155.244C244.378 159.326 253.97 158.783 258.758 154.032C263.539 149.301 261.749 142.101 254.763 138.018ZM255.084 151.901C251.852 155.11 245.161 155.361 240.199 152.464C235.237 149.565 233.83 144.583 237.063 141.379C240.303 138.157 246.977 137.912 251.938 140.817C256.918 143.716 258.325 148.692 255.084 151.901Z" fill="black"/>
<path d="M276.325 118.279C271.347 115.361 265.046 114.818 260.11 116.453C258.928 116.697 242.958 119.768 228.585 114.137C226.5 113.018 169.445 91.6978 169.445 91.6978L166.464 91.5624L214.734 117.088L222.954 115.956L258.32 135.1C258.528 135.239 258.737 135.378 258.963 135.516C265.949 139.599 275.525 139.057 280.321 134.312C285.101 129.555 283.312 122.363 276.325 118.279ZM217.941 114.19C217.116 115.004 215.586 115.162 214.525 114.534C213.448 113.899 213.256 112.74 214.074 111.927C214.891 111.113 216.429 110.967 217.498 111.589C218.557 112.211 218.758 113.376 217.941 114.19ZM276.638 132.169C273.405 135.379 266.732 135.63 261.752 132.724C256.791 129.826 255.392 124.844 258.616 121.634C261.866 118.418 268.539 118.167 273.492 121.072C278.462 123.97 279.879 128.953 276.638 132.169Z" fill="black"/>
<path d="M83.0711 63.2805C82.7585 63.9554 82.7667 65.6362 83.0101 67.2841C83.0101 67.5221 82.9185 67.7443 82.9185 67.9885C82.9185 69.0867 82.984 70.1691 83.1142 71.2412C85.3132 88.899 104.552 102.213 127.865 102.213C152.656 102.213 172.816 86.8606 172.816 67.9885C172.816 67.0393 172.555 66.1525 172.442 65.2225C172.625 64.1209 172.79 62.9462 172.92 61.5731C174.518 59.4158 173.789 48.1071 168.715 47.8889C169.01 41.6555 165.673 41.6028 164.51 39.9481C163.362 38.2871 162.416 33.6551 160.173 33.4431C161.26 36.8047 160.825 37.1917 160.173 36.7514C159.513 36.3015 154.23 28.47 150.902 28.3606C154.239 31.6757 156.116 34.7097 155.543 34.432C154.96 34.1543 137.351 25.6048 128.587 25.2773C119.82 24.9463 108.884 30.4618 108.884 30.4618C108.884 30.4618 108.371 27.7061 111.634 25.2773C109.24 24.7214 105.851 29.7637 105.256 30.5712C104.969 30.9486 100.398 30.3593 96.0534 31.8916C91.2046 33.6052 86.4688 37.5493 84.8265 40.0637C81.7108 44.8085 82.4408 51.0482 82.5018 51.9781C82.5628 52.9109 80.5425 54.9588 80.9071 57.1133C81.2635 59.2475 83.7319 61.8417 83.0711 63.2805ZM91.4784 72.3791C92.6906 69.6891 94.8978 68.5779 94.807 66.8636C94.6678 63.7735 92.0953 64.3555 92.0611 61.2388C92.044 59.545 92.4607 57.6687 93.117 55.912C94.5681 53.5002 96.5014 51.3066 98.7264 49.2983C104.687 47.9122 122.622 52.3889 126.541 51.3066C128.427 49.5363 144.872 48.4947 153.196 49.8145C156.619 50.3636 161.052 54.1456 162.98 60.4052C164.353 64.8916 164.917 70.1986 165.135 74.3773C161.285 87.3735 146.07 97.1238 127.857 97.1238C109.926 97.1238 94.932 87.8433 90.805 74.9791C90.9657 74.0202 91.1525 73.1039 91.4784 72.3791Z" fill="black"/>
</g>
<rect x="0.5" y="0.7547" width="282" height="214.509" stroke="#7C7C7C"/>
<defs>
<clipPath id="clip0_84_386">
<rect y="0.2547" width="283" height="215.509" fill="white"/>
</clipPath>
</defs>
</svg>
