<svg width="276" height="217" viewBox="0 0 276 217" fill="none" xmlns="http://www.w3.org/2000/svg">
<g clip-path="url(#clip0_84_408)">
<path d="M188.254 99.2776C195.236 101.964 202.66 104.836 208.847 107.248L170 82.2319L171.084 84.4686C171.092 84.4618 179.118 91.3997 188.254 99.2776Z" fill="black"/>
<path d="M248.461 138.309C248.445 138.296 248.418 138.289 248.393 138.275C248.444 138.275 248.487 138.282 248.487 138.282L216.723 117.855L210.944 118.676C211.24 118.927 211.486 119.139 211.758 119.364L200.325 130.877L170.775 112.998V112.859L170.385 112.766L169.961 112.508L169.825 112.647L151.672 108.558C151.672 118.424 141.435 126.418 128.812 126.418C116.185 126.418 105.952 118.424 105.952 108.558L80.9774 112.846L80.952 112.812L50.5878 131.195L38.8635 119.363L71.7446 95.9184L73.1046 94.9493C73.2193 94.8666 73.2955 94.8071 73.3165 94.7941C74.207 94.1554 73.5328 93.1926 72.7149 92.4945C71.8926 91.7929 63.7956 85.1429 62.6685 84.183C61.0878 85.1033 61.27 85.9635 62.1554 86.7178C63.0415 87.4686 68.8968 92.4814 68.8968 92.4814L69.1131 93.6624L68.8213 93.871L60.2786 86.5721L59.0579 87.442L67.5963 94.7442L66.528 95.5053L57.9984 88.1996L56.782 89.0666L65.3203 96.3717L64.2992 97.0965L55.7587 89.792L54.5467 90.6624L63.0851 97.9646L62.0262 98.7155L53.4879 91.4201L52.2628 92.2871L60.8012 99.5927L59.788 100.317L51.2454 93.0119L50.0334 93.8789L58.5717 101.184L57.7117 101.793L49.1734 94.4909L47.9491 95.3574L56.4874 102.66L55.4742 103.388L46.9374 96.0816L45.7123 96.9486L54.2507 104.254L53.1657 105.019L44.6273 97.7164L43.411 98.5835L51.9493 105.886L50.9449 106.624L42.4066 99.3213L41.1903 100.188L49.7286 107.494L48.669 108.241L40.1321 100.939L38.9071 101.812L47.4454 109.114L46.4243 109.842L37.886 102.54L36.6696 103.407L45.2079 110.709L44.2122 111.417L35.6696 104.119L34.4583 104.985L42.9966 112.291L41.9799 113.012L33.4415 105.71L32.2252 106.577L40.7679 113.879L39.7083 114.634L31.1656 107.328L29.9536 108.195L38.492 115.494L37.4665 116.215L28.9282 108.916L27.7038 109.783L36.2422 117.088L35.3858 117.698L26.8475 110.392L25.6224 111.258L34.1607 118.564L33.144 119.305L24.6064 112.006L23.3821 112.873L31.9327 120.172L30.8565 120.945L22.3138 113.64L21.1018 114.507L29.6401 121.812L28.6146 122.54L20.0763 115.235L18.86 116.109L27.4027 123.414L26.3438 124.168L17.8011 116.863L16.5812 117.73L25.1195 125.036L24.1027 125.757L15.5644 118.451L14.3394 119.318L22.882 126.624L22.0213 127.239L13.475 119.934L12.2594 120.801L20.7977 128.105L19.7722 128.827L11.2513 121.527L10.0394 122.401L18.5777 129.707L17.7169 130.315L9.17863 123.016L7.95358 123.883L16.4919 131.182L15.4788 131.91L6.93682 124.604L5.72484 125.471L14.2711 132.777L13.2123 133.531L4.6747 126.226L3.45908 127.086L11.9974 134.393L11.5141 134.743L10.0183 134.465C10.0183 134.465 4.15361 129.449 3.2762 128.701C2.39079 127.947 1.31452 127.722 -0.00341797 128.874C1.12365 129.84 8.86511 136.735 9.691 137.443C10.5046 138.145 11.6781 138.753 12.5642 138.118C12.6317 138.071 13.1869 137.667 14.1405 136.993L23.0729 130.634L33.7376 141.38L34.8901 142.538L46.822 154.555L63.6736 144.365L63.6482 144.338L82.4442 132.97L86.0286 191.075H164.892L169.232 133.108L187.282 144.027L187.257 144.047L204.113 154.244L216.045 142.227L217.197 141.062L223.367 134.842C225.164 140.03 225.146 144.112 225.146 144.318C224.494 148.315 226.765 152.682 231.519 155.534C238.333 159.617 247.688 159.074 252.358 154.323C257.021 149.591 255.275 142.392 248.461 138.309ZM248.775 152.192C245.622 155.401 239.097 155.652 234.258 152.755C229.419 149.856 228.046 144.873 231.199 141.67C234.359 138.448 240.868 138.203 245.706 141.108C250.563 144.007 251.935 148.983 248.775 152.192Z" fill="black"/>
<path d="M269.49 118.57C264.635 115.652 258.49 115.109 253.676 116.743C252.524 116.988 236.948 120.058 222.931 114.427C220.897 113.309 165.254 91.9884 165.254 91.9884L162.346 91.853L209.422 117.379L217.439 116.247L251.93 135.39C252.133 135.529 252.337 135.669 252.557 135.807C259.371 139.89 268.71 139.348 273.387 134.603C278.049 129.845 276.304 122.653 269.49 118.57ZM212.55 114.481C211.745 115.294 210.253 115.453 209.219 114.824C208.169 114.189 207.981 113.031 208.778 112.217C209.575 111.403 211.075 111.258 212.118 111.879C213.151 112.502 213.347 113.667 212.55 114.481ZM269.796 132.46C266.642 135.669 260.134 135.92 255.278 133.015C250.439 130.117 249.075 125.135 252.219 121.925C255.388 118.709 261.897 118.457 266.727 121.363C271.574 124.261 272.956 129.244 269.796 132.46Z" fill="black"/>
<path d="M81.0162 63.5711C80.7114 64.2461 80.7194 65.9268 80.9567 67.5747C80.9567 67.8127 80.8674 68.0349 80.8674 68.2791C80.8674 69.3773 80.9313 70.4597 81.0583 71.5319C83.2029 89.1896 101.965 102.503 124.702 102.503C148.88 102.503 168.541 87.1513 168.541 68.2791C168.541 67.3299 168.286 66.4431 168.177 65.5132C168.355 64.4115 168.516 63.2368 168.643 61.8637C170.202 59.7064 169.49 48.3977 164.542 48.1796C164.83 41.9461 161.575 41.8934 160.44 40.2387C159.321 38.5777 158.398 33.9457 156.211 33.7338C157.271 37.0953 156.847 37.4823 156.211 37.042C155.567 36.5921 150.415 28.7606 147.17 28.6512C150.424 31.9663 152.254 35.0003 151.695 34.7226C151.127 34.4449 133.954 25.8954 125.407 25.5679C116.856 25.237 106.191 30.7525 106.191 30.7525C106.191 30.7525 105.691 27.9967 108.872 25.5679C106.538 25.012 103.233 30.0543 102.652 30.8618C102.373 31.2392 97.9143 30.6499 93.6775 32.1822C88.9485 33.8958 84.3299 37.8399 82.7282 40.3543C79.6896 45.0991 80.4015 51.3388 80.461 52.2687C80.5205 53.2015 78.5501 55.2495 78.9058 57.404C79.2534 59.5381 81.6607 62.1324 81.0162 63.5711ZM89.2156 72.6698C90.3978 69.9797 92.5504 68.8685 92.4618 67.1543C92.3261 64.0642 89.8172 64.6461 89.7839 61.5294C89.7672 59.8356 90.1736 57.9593 90.8137 56.2026C92.2289 53.7908 94.1144 51.5972 96.2843 49.5889C102.097 48.2028 119.589 52.6796 123.411 51.5972C125.25 49.8269 141.288 48.7853 149.406 50.1051C152.745 50.6542 157.068 54.4363 158.948 60.6958C160.287 65.1822 160.838 70.4892 161.05 74.6679C157.296 87.6641 142.457 97.4144 124.694 97.4144C107.207 97.4144 92.5838 88.1339 88.5588 75.2697C88.7156 74.3109 88.8977 73.3945 89.2156 72.6698Z" fill="black"/>
</g>
<rect x="0.5" y="1.0453" width="275" height="214.509" stroke="#7C7C7C"/>
<defs>
<clipPath id="clip0_84_408">
<rect y="0.545303" width="276" height="215.509" fill="white"/>
</clipPath>
</defs>
</svg>
