<svg width="161" height="145" viewBox="0 0 161 145" fill="none" xmlns="http://www.w3.org/2000/svg">
<g clip-path="url(#clip0_91_42)">
<path d="M109.817 66.6126C113.89 68.4074 118.22 70.326 121.829 71.9372L99.1685 55.225L99.8009 56.7192C99.8056 56.7147 104.487 61.3496 109.817 66.6126Z" fill="black"/>
<path d="M144.938 92.6878C144.928 92.6791 144.913 92.6745 144.898 92.6654C144.928 92.6654 144.953 92.67 144.953 92.67L126.424 79.0234L123.053 79.5716C123.226 79.7397 123.369 79.8809 123.527 80.0312L116.858 87.7231L99.6205 75.7787V75.6859L99.3932 75.6238L99.146 75.4512L99.0664 75.5443L88.4776 72.8121C88.4776 79.4035 82.5059 84.7437 75.1426 84.7437C67.7767 84.7437 61.8075 79.4035 61.8075 72.8121L47.2389 75.6768L47.224 75.6545L29.5116 87.9351L22.6724 80.0308L41.853 64.3684L42.6464 63.721C42.7133 63.6657 42.7577 63.626 42.77 63.6173C43.2894 63.1906 42.8962 62.5474 42.419 62.081C41.9394 61.6123 37.2161 57.1698 36.5586 56.5284C35.6366 57.1433 35.7428 57.7179 36.2593 58.2218C36.7762 58.7234 40.1918 62.0723 40.1918 62.0723L40.318 62.8613L40.1478 63.0006L35.1645 58.1245L34.4525 58.7056L39.4332 63.584L38.81 64.0924L33.8344 59.2118L33.1249 59.791L38.1055 64.6712L37.5099 65.1554L32.5279 60.2756L31.8209 60.8571L36.8016 65.7354L36.184 66.237L31.2033 61.3632L30.4887 61.9425L35.4694 66.8231L34.8784 67.3073L29.8951 62.4267L29.1881 63.0059L34.1688 67.8861L33.6672 68.2931L28.6865 63.4147L27.9723 63.9936L32.953 68.8719L32.362 69.3584L27.3821 64.4774L26.6675 65.0566L31.6482 69.9372L31.0153 70.4479L26.0346 65.5696L25.3251 66.1488L30.3058 71.0272L29.7199 71.5201L24.7392 66.6417L24.0297 67.2209L29.0103 72.1016L28.3923 72.6009L23.4124 67.7222L22.6978 68.3056L27.6785 73.1839L27.0828 73.6704L22.1021 68.792L21.3926 69.3713L26.3733 74.2496L25.7925 74.7224L20.8092 69.8468L20.1027 70.4256L25.0834 75.3062L24.4903 75.7881L19.5096 70.9098L18.8 71.489L23.7833 76.3674L23.1652 76.8712L18.1819 71.9906L17.475 72.5699L22.4556 77.4459L21.8575 77.9278L16.8768 73.0518L16.1626 73.631L21.1433 78.5112L20.6437 78.9182L15.663 74.0376L14.9484 74.6164L19.9291 79.497L19.336 79.9922L14.3557 75.1158L13.6415 75.695L18.6294 80.5711L18.0016 81.0878L13.0184 76.2076L12.3114 76.7868L17.2921 81.667L16.6939 82.1535L11.7132 77.2729L11.0037 77.8567L15.9869 82.7369L15.3692 83.2412L10.386 78.3606L9.67435 78.9398L14.655 83.8204L14.0619 84.3023L9.08124 79.4217L8.36663 80.0009L13.3499 84.8815L12.8478 85.2927L7.86242 80.4121L7.15331 80.9913L12.134 85.8711L11.5358 86.3531L6.56528 81.4766L5.85829 82.0604L10.839 86.941L10.3369 87.3476L5.3562 82.4715L4.64159 83.0507L9.62227 87.9264L9.03128 88.4129L4.04848 83.5323L3.34149 84.1115L8.32683 88.9921L7.70917 89.496L2.7289 84.6158L2.01979 85.1904L7.00048 90.0714L6.71853 90.3058L5.84601 90.1199C5.84601 90.1199 2.42494 86.7691 1.91311 86.2694C1.39662 85.7655 0.7688 85.6148 0 86.3845C0.657459 87.0299 5.17331 91.6361 5.65508 92.1093C6.12965 92.578 6.81421 92.9846 7.33112 92.5602C7.37049 92.5291 7.69435 92.2592 8.25063 91.8087L13.4612 87.5603L19.6823 94.7393L20.3546 95.5131L27.3148 103.541L37.145 96.7336L37.1302 96.7158L48.0944 89.1208L50.1854 127.939H96.1893L98.7205 89.2136L109.25 96.508L109.235 96.5212L119.068 103.333L126.028 95.3052L126.7 94.5269L130.299 90.3716C131.347 93.8375 131.337 96.5648 131.337 96.7022C130.957 99.3723 132.281 102.29 135.055 104.195C139.03 106.923 144.487 106.56 147.211 103.386C149.931 100.225 148.912 95.4154 144.938 92.6878ZM145.121 101.963C143.282 104.106 139.475 104.274 136.652 102.338C133.83 100.402 133.029 97.0732 134.868 94.9331C136.712 92.7805 140.508 92.617 143.331 94.5576C146.164 96.4944 146.964 99.8186 145.121 101.963Z" fill="black"/>
<path d="M157.205 79.5008C154.372 77.5515 150.788 77.1889 147.98 78.2807C147.308 78.4442 138.222 80.4953 130.045 76.7334C128.859 75.9861 96.4 61.7429 96.4 61.7429L94.7041 61.6525L122.165 78.7051L126.842 77.949L146.961 90.7381C147.08 90.8309 147.199 90.924 147.327 91.0164C151.302 93.744 156.75 93.3817 159.478 90.2119C162.198 87.0337 161.179 82.2288 157.205 79.5008ZM123.99 76.769C123.52 77.3127 122.65 77.4187 122.046 76.9988C121.434 76.5744 121.325 75.8006 121.789 75.257C122.254 74.7134 123.129 74.6161 123.738 75.0314C124.34 75.447 124.454 76.2254 123.99 76.769ZM157.383 88.7801C155.543 90.9244 151.747 91.0921 148.914 89.1511C146.092 87.2151 145.296 83.8866 147.13 81.7424C148.979 79.594 152.775 79.4259 155.593 81.3668C158.42 83.3029 159.227 86.6317 157.383 88.7801Z" fill="black"/>
<path d="M47.2615 42.7585C47.0837 43.2094 47.0884 44.3322 47.2268 45.4331C47.2268 45.5921 47.1747 45.7405 47.1747 45.9037C47.1747 46.6374 47.212 47.3605 47.2861 48.0767C48.5371 59.8732 59.4819 68.7675 72.745 68.7675C86.8488 68.7675 98.3177 58.5114 98.3177 45.9037C98.3177 45.2696 98.1691 44.6771 98.1052 44.0559C98.2089 43.3199 98.3029 42.5351 98.377 41.6178C99.2863 40.1766 98.8715 32.6217 95.9847 32.476C96.1527 28.3116 94.2544 28.2764 93.5923 27.171C92.9395 26.0614 92.401 22.9669 91.1255 22.8253C91.7435 25.071 91.4963 25.3296 91.1255 25.0354C90.7495 24.7349 87.7442 19.5029 85.851 19.4299C87.7493 21.6445 88.8169 23.6714 88.491 23.4859C88.1595 23.3004 78.1418 17.5888 73.156 17.37C68.1681 17.1489 61.9466 20.8336 61.9466 20.8336C61.9466 20.8336 61.6549 18.9926 63.5109 17.37C62.149 16.9986 60.2211 20.3672 59.8824 20.9067C59.7194 21.1588 57.1188 20.7651 54.6473 21.7888C51.8887 22.9336 49.1945 25.5685 48.2602 27.2482C46.4877 30.418 46.903 34.5865 46.9377 35.2078C46.9724 35.8309 45.823 37.1991 46.0304 38.6384C46.2332 40.0642 47.6375 41.7973 47.2615 42.7585ZM52.0445 48.8369C52.7342 47.0398 53.9898 46.2974 53.9382 45.1522C53.859 43.0879 52.3955 43.4767 52.376 41.3945C52.3663 40.2629 52.6033 39.0095 52.9767 37.8359C53.8023 36.2246 54.9021 34.7592 56.1679 33.4175C59.5589 32.4915 69.7625 35.4823 71.9918 34.7592C73.0646 33.5765 82.4202 32.8807 87.1557 33.7624C89.1035 34.1292 91.625 36.6558 92.7219 40.8376C93.503 43.8348 93.8243 47.3802 93.9479 50.1718C91.7579 58.8541 83.1017 65.3678 72.7403 65.3678C62.5393 65.3678 54.0093 59.1679 51.6614 50.5738C51.7528 49.9333 51.8591 49.3211 52.0445 48.8369Z" fill="black"/>
</g>
<rect x="0.5" y="1.14001" width="160" height="143" stroke="#7C7C7C"/>
<defs>
<clipPath id="clip0_91_42">
<rect y="0.640015" width="161" height="144" fill="white"/>
</clipPath>
</defs>
</svg>
