<svg width="276" height="217" viewBox="0 0 276 217" fill="none" xmlns="http://www.w3.org/2000/svg">
<g clip-path="url(#clip0_91_198)">
<path d="M188.254 99.6776C195.236 102.364 202.66 105.236 208.847 107.648L170 82.6319L171.084 84.8686C171.092 84.8618 179.118 91.7996 188.254 99.6776Z" fill="black"/>
<path d="M248.461 138.709C248.445 138.696 248.418 138.689 248.393 138.675C248.444 138.675 248.487 138.682 248.487 138.682L216.723 118.255L210.944 119.076C211.24 119.327 211.486 119.539 211.758 119.764L200.325 131.277L170.775 113.398V113.259L170.385 113.166L169.961 112.908L169.825 113.047L151.672 108.958C151.672 118.824 141.435 126.818 128.812 126.818C116.185 126.818 105.952 118.824 105.952 108.958L80.9774 113.246L80.952 113.212L50.5878 131.595L38.8635 119.763L71.7446 96.3183L73.1046 95.3493C73.2193 95.2666 73.2955 95.2071 73.3165 95.1941C74.207 94.5554 73.5328 93.5926 72.7149 92.8945C71.8926 92.1929 63.7956 85.5429 62.6685 84.583C61.0878 85.5033 61.27 86.3635 62.1554 87.1177C63.0415 87.8686 68.8968 92.8814 68.8968 92.8814L69.1131 94.0624L68.8213 94.2709L60.2786 86.9721L59.0579 87.842L67.5963 95.1442L66.528 95.9052L57.9984 88.5996L56.782 89.4666L65.3203 96.7717L64.2992 97.4965L55.7587 90.192L54.5467 91.0624L63.0851 98.3646L62.0262 99.1155L53.4879 91.8201L52.2628 92.6871L60.8012 99.9927L59.788 100.717L51.2454 93.4118L50.0334 94.2789L58.5717 101.584L57.7117 102.193L49.1734 94.8909L47.9491 95.7573L56.4874 103.06L55.4742 103.788L46.9374 96.4816L45.7123 97.3486L54.2506 104.654L53.1657 105.419L44.6273 98.1164L43.411 98.9834L51.9493 106.286L50.9449 107.023L42.4066 99.7213L41.1902 100.588L49.7286 107.894L48.669 108.641L40.1321 101.339L38.9071 102.212L47.4454 109.514L46.4243 110.242L37.886 102.94L36.6696 103.807L45.2079 111.109L44.2122 111.817L35.6696 104.519L34.4583 105.385L42.9966 112.691L41.9798 113.412L33.4415 106.11L32.2252 106.977L40.7679 114.279L39.7083 115.034L31.1656 107.728L29.9536 108.595L38.4919 115.894L37.4665 116.615L28.9282 109.316L27.7038 110.183L36.2422 117.488L35.3858 118.098L26.8475 110.792L25.6224 111.658L34.1607 118.964L33.144 119.705L24.6064 112.406L23.3821 113.273L31.9327 120.572L30.8565 121.345L22.3138 114.04L21.1018 114.907L29.6401 122.212L28.6146 122.94L20.0763 115.635L18.86 116.509L27.4027 123.814L26.3438 124.568L17.8011 117.263L16.5812 118.13L25.1195 125.435L24.1027 126.157L15.5644 118.851L14.3394 119.718L22.882 127.024L22.0213 127.639L13.475 120.334L12.2594 121.201L20.7977 128.505L19.7722 129.227L11.2513 121.927L10.0394 122.801L18.5777 130.107L17.7169 130.715L9.17863 123.416L7.95358 124.283L16.4919 131.582L15.4788 132.31L6.93682 125.004L5.72484 125.871L14.2711 133.177L13.2123 133.931L4.67469 126.626L3.45908 127.486L11.9974 134.793L11.5141 135.143L10.0183 134.865C10.0183 134.865 4.15361 129.849 3.2762 129.101C2.39079 128.347 1.31452 128.122 -0.00341797 129.274C1.12365 130.24 8.86511 137.135 9.691 137.843C10.5046 138.544 11.6781 139.153 12.5642 138.518C12.6317 138.471 13.1869 138.067 14.1405 137.393L23.0729 131.034L33.7376 141.78L34.8901 142.938L46.822 154.955L63.6736 144.765L63.6482 144.738L82.4442 133.37L86.0286 191.475H164.892L169.232 133.508L187.281 144.427L187.257 144.447L204.113 154.644L216.045 142.627L217.197 141.462L223.367 135.242C225.164 140.43 225.146 144.512 225.146 144.718C224.494 148.715 226.765 153.082 231.519 155.934C238.333 160.017 247.688 159.474 252.358 154.723C257.021 149.991 255.275 142.792 248.461 138.709ZM248.775 152.592C245.622 155.801 239.097 156.052 234.258 153.155C229.419 150.256 228.046 145.273 231.199 142.07C234.359 138.848 240.868 138.603 245.706 141.508C250.563 144.407 251.935 149.383 248.775 152.592Z" fill="black"/>
<path d="M269.49 118.97C264.635 116.052 258.49 115.509 253.677 117.143C252.524 117.388 236.948 120.458 222.931 114.827C220.898 113.709 165.254 92.3884 165.254 92.3884L162.347 92.253L209.422 117.779L217.44 116.647L251.93 135.79C252.134 135.929 252.338 136.069 252.558 136.207C259.371 140.29 268.71 139.748 273.388 135.003C278.05 130.245 276.304 123.053 269.49 118.97ZM212.55 114.881C211.746 115.694 210.253 115.853 209.219 115.224C208.169 114.589 207.982 113.431 208.779 112.617C209.576 111.803 211.076 111.658 212.119 112.279C213.151 112.902 213.347 114.067 212.55 114.881ZM269.796 132.86C266.643 136.069 260.135 136.32 255.278 133.415C250.44 130.517 249.075 125.535 252.219 122.325C255.389 119.109 261.897 118.857 266.728 121.763C271.575 124.661 272.957 129.644 269.796 132.86Z" fill="black"/>
<path d="M81.0162 63.9711C80.7114 64.6461 80.7194 66.3268 80.9567 67.9747C80.9567 68.2127 80.8674 68.4349 80.8674 68.6791C80.8674 69.7773 80.9313 70.8597 81.0583 71.9319C83.2029 89.5896 101.965 102.903 124.702 102.903C148.88 102.903 168.541 87.5513 168.541 68.6791C168.541 67.7299 168.286 66.8431 168.177 65.9132C168.355 64.8115 168.516 63.6368 168.643 62.2637C170.202 60.1064 169.49 48.7977 164.542 48.5795C164.83 42.3461 161.575 42.2934 160.44 40.6387C159.321 38.9777 158.398 34.3457 156.211 34.1338C157.271 37.4953 156.847 37.8823 156.211 37.442C155.567 36.9921 150.415 29.1606 147.17 29.0512C150.424 32.3663 152.254 35.4003 151.695 35.1226C151.127 34.8449 133.954 26.2954 125.407 25.9679C116.856 25.637 106.191 31.1524 106.191 31.1524C106.191 31.1524 105.691 28.3967 108.872 25.9679C106.538 25.412 103.233 30.4543 102.652 31.2618C102.373 31.6392 97.9143 31.0499 93.6775 32.5822C88.9485 34.2958 84.3299 38.2399 82.7282 40.7543C79.6896 45.4991 80.4015 51.7388 80.461 52.6687C80.5205 53.6015 78.5501 55.6494 78.9058 57.804C79.2534 59.9381 81.6607 62.5323 81.0162 63.9711ZM89.2156 73.0698C90.3978 70.3797 92.5504 69.2685 92.4618 67.5543C92.3261 64.4642 89.8172 65.0461 89.7839 61.9294C89.7672 60.2356 90.1736 58.3593 90.8137 56.6026C92.2289 54.1908 94.1144 51.9972 96.2843 49.9889C102.097 48.6028 119.589 53.0796 123.411 51.9972C125.25 50.2269 141.288 49.1853 149.406 50.5051C152.745 51.0542 157.068 54.8363 158.948 61.0958C160.287 65.5822 160.838 70.8892 161.05 75.0679C157.296 88.0641 142.457 97.8144 124.694 97.8144C107.207 97.8144 92.5838 88.5339 88.5588 75.6697C88.7156 74.7109 88.8977 73.7945 89.2156 73.0698Z" fill="black"/>
</g>
<rect x="0.5" y="1.44531" width="275" height="214.509" stroke="#7C7C7C"/>
<defs>
<clipPath id="clip0_91_198">
<rect y="0.945312" width="276" height="215.509" fill="white"/>
</clipPath>
</defs>
</svg>
